<svg xmlns="http://www.w3.org/2000/svg" id="avro-ko" viewBox="0 0 288 92">
  <defs/>
  <path fill="#1D1D1B" d="M16.43 25.345L21.575 58.315H11.6L16.43 25.345ZM13.385 5.49999L14.435 9.07L4.25 75.43L0.26 79H12.965L8.975 75.43L10.865 63.145H22.31L24.2 75.43L19.79 79H40.37L36.065 75.43L25.145 5.49999H13.385ZM62.0517 10.96L55.1217 63.04L47.7717 9.07L52.1817 5.49999H31.6017L35.9067 9.07L45.3567 79H57.8517L66.8817 10.96L73.2867 5.49999H55.6467L62.0517 10.96ZM89.3705 59.68C99.4505 58.525 107.956 46.87 107.956 32.695C107.956 17.575 98.6105 5.49999 87.7955 5.49999H71.6255L76.0355 8.86V75.43L72.1505 79H91.6805L87.7955 75.43V63.25C97.1405 81.625 107.326 79.315 107.326 79.315V62.305C100.816 66.61 94.3055 63.88 89.3705 59.68ZM87.7955 8.65C92.4155 8.65 96.0905 19.36 96.0905 32.695C96.0905 45.925 92.4155 56.635 87.7955 56.635V8.65ZM160.604 42.25C160.604 20.2 149.054 4.45 134.774 4.45C120.389 4.45 108.944 20.2 108.944 42.25C108.944 64.3 120.389 80.05 134.774 80.05C149.054 80.05 160.604 64.3 160.604 42.25ZM146.954 42.25C146.954 62.935 143.804 77.74 134.774 77.74C125.639 77.74 122.594 62.935 122.594 42.25C122.594 21.565 125.639 6.76 134.774 6.76C143.804 6.76 146.954 21.565 146.954 42.25ZM176.209 91.915H179.044V0.354999H176.209V91.915ZM240.572 75.43L223.247 26.92L232.487 10.96L239.102 5.49999H221.672L227.762 10.96L211.172 39.73V9.07L215.477 5.49999H195.107L199.412 9.07V75.43L195.107 79H215.687L211.172 75.43V47.71L215.582 40.15L228.602 75.43L224.297 79H244.877L240.572 75.43ZM287.273 42.25C287.273 20.2 275.723 4.45 261.443 4.45C247.058 4.45 235.613 20.2 235.613 42.25C235.613 64.3 247.058 80.05 261.443 80.05C275.723 80.05 287.273 64.3 287.273 42.25ZM273.623 42.25C273.623 62.935 270.473 77.74 261.443 77.74C252.308 77.74 249.263 62.935 249.263 42.25C249.263 21.565 252.308 6.76 261.443 6.76C270.473 6.76 273.623 21.565 273.623 42.25Z"/>
</svg>
