<svg width="215" height="74" viewBox="0 0 215 74" fill="none" xmlns="http://www.w3.org/2000/svg">
<path d="M37.3583 27.7994C37.3583 13.1426 28.3387 1.25309 17.6792 1.25309H0.869876L5.78966 4.73794V69.5152L1.68984 73H22.2915L17.2692 69.5152V54.2433C27.8262 54.2433 37.3583 42.4563 37.3583 27.7994ZM17.2692 51.1684V4.32796C22.189 4.32796 25.7763 14.7825 25.7763 27.7994C25.7763 40.7139 22.189 51.1684 17.2692 51.1684ZM54.005 54.1408C63.8446 53.0134 72.1467 41.6363 72.1467 27.7994C72.1467 13.0401 63.0246 1.25309 52.4676 1.25309H36.6833L40.9881 4.53295V69.5152L37.1958 73H56.2599L52.4676 69.5152V57.6257C61.5897 75.5624 71.5318 73.3075 71.5318 73.3075V56.7032C65.177 60.9055 58.8223 58.2406 54.005 54.1408ZM52.4676 4.32796C56.9774 4.32796 60.5647 14.7825 60.5647 27.7994C60.5647 40.7139 56.9774 51.1684 52.4676 51.1684V4.32796ZM86.6411 20.6248L91.6633 52.8084H81.9263L86.6411 20.6248ZM83.6687 1.25309L84.6936 4.73794L74.7516 69.5152L70.8567 73H83.2587L79.3639 69.5152L81.2088 57.5232H92.3808L94.2257 69.5152L89.9209 73H110.01L105.808 69.5152L95.1482 1.25309H83.6687ZM122.989 4.32796C128.523 6.07038 132.931 20.6248 132.931 37.229C132.931 53.6283 128.523 68.1827 122.989 69.9251V4.32796ZM107.409 1.25309L111.509 4.73794V69.5152L107.409 73H122.989C136.723 73 144.41 56.9082 144.41 37.639C144.41 18.3698 136.723 1.25309 122.989 1.25309H107.409ZM156.867 20.6248L161.889 52.8084H152.152L156.867 20.6248ZM153.894 1.25309L154.919 4.73794L144.977 69.5152L141.082 73H153.484L149.589 69.5152L151.434 57.5232H162.606L164.451 69.5152L160.146 73H180.236L176.033 69.5152L165.374 1.25309H153.894ZM196.556 37.024C206.293 37.024 214.595 28.9269 214.595 18.8823C214.595 9.14525 206.498 0.945605 196.556 0.945605C186.613 0.945605 178.516 9.14525 178.516 18.8823C178.516 28.9269 186.613 37.024 196.556 37.024ZM196.556 33.9492C188.253 33.9492 181.591 27.1845 181.591 18.8823C181.591 10.7852 188.356 4.02047 196.556 4.02047C204.858 4.02047 211.52 10.7852 211.52 18.8823C211.52 27.1845 204.755 33.9492 196.556 33.9492ZM196.556 24.5196C199.733 24.1096 202.295 20.4198 202.295 15.91C202.295 11.1952 199.425 7.40282 196.146 7.40282H190.816L192.353 8.63277V29.3369L191.021 30.5668H197.683L196.146 29.3369V25.5445C197.478 28.2094 199.323 30.7718 202.09 30.6693V25.5445C200.348 27.082 198.093 25.852 196.556 24.5196ZM195.326 8.53028C196.658 8.53028 198.298 11.8101 198.298 15.91C198.298 20.2148 196.658 23.4946 195.326 23.4946V8.53028Z" fill="#1D1D1B"/>
</svg>
