<svg width="374" height="73" viewBox="0 0 374 73" fill="none" xmlns="http://www.w3.org/2000/svg">
<path d="M20.6994 31.5319C27.0606 29.3014 32.8161 23.4208 32.8161 16.5264C32.8161 7.90833 24.4354 1.01389 15.4488 1.01389H0L4.13988 4.46111V68.5389L0 71.9861H15.3478C28.1713 71.9861 37.1579 62.6583 37.1579 51.5056C37.1579 41.8736 29.9889 33.8639 20.6994 31.5319ZM15.4488 33.4583C20.3965 33.5597 25.4451 41.3667 25.4451 51.4042C25.4451 61.4417 20.3965 68.9444 15.4488 68.9444V33.4583ZM15.4488 4.05556C19.1848 4.05556 22.214 9.125 22.214 16.7292C22.214 24.4347 19.1848 30.4167 15.4488 30.4167V4.05556Z" fill="#1D1D1B"/>
<path d="M87.9558 36.5C87.9558 15.2083 76.8488 0 63.1165 0C49.2833 0 38.2773 15.2083 38.2773 36.5C38.2773 57.7917 49.2833 73 63.1165 73C76.8488 73 87.9558 57.7917 87.9558 36.5ZM74.8293 36.5C74.8293 56.4736 71.8002 70.7694 63.1165 70.7694C54.3319 70.7694 51.4037 56.4736 51.4037 36.5C51.4037 16.5264 54.3319 2.23056 63.1165 2.23056C71.8002 2.23056 74.8293 16.5264 74.8293 36.5Z" fill="#1D1D1B"/>
<path d="M139.456 36.5C139.456 15.2083 128.349 0 114.616 0C100.783 0 89.7772 15.2083 89.7772 36.5C89.7772 57.7917 100.783 73 114.616 73C128.349 73 139.456 57.7917 139.456 36.5ZM126.329 36.5C126.329 56.4736 123.3 70.7694 114.616 70.7694C105.832 70.7694 102.904 56.4736 102.904 36.5C102.904 16.5264 105.832 2.23056 114.616 2.23056C123.3 2.23056 126.329 16.5264 126.329 36.5Z" fill="#1D1D1B"/>
<path d="M182.373 68.5389L165.713 21.6972L174.598 6.28611L180.959 1.01389H164.198L170.054 6.28611L154.101 34.0667V4.46111L158.241 1.01389H138.652L142.792 4.46111V68.5389L138.652 71.9861H158.443L154.101 68.5389V41.7722L158.342 34.4722L170.862 68.5389L166.722 71.9861H186.513L182.373 68.5389Z" fill="#1D1D1B"/>
<path d="M198.909 43.6986C205.876 49.0722 210.117 51.9111 210.117 58.1972C210.117 64.0778 206.482 67.4236 202.039 67.4236C194.264 67.4236 186.287 57.1833 181.441 46.5375L183.709 67.4236L185.681 68.5389C190.427 71.2764 195.476 72.2903 199.919 72.2903C209.208 72.2903 217.993 65.5986 217.993 53.0264C217.993 40.3528 211.328 35.0806 204.058 29.2C197.091 23.6236 189.417 19.0611 189.417 12.9778C189.417 7.70556 192.75 4.46111 197.394 4.46111C202.948 4.46111 206.482 7.09722 215.165 23.8264V0.709725L211.026 3.24444C208.097 2.12917 204.058 0.709725 199.818 0.709725C188.812 0.709725 181.441 8.31389 181.441 19.7708C181.441 31.5319 193.153 39.4403 198.909 43.6986Z" fill="#1D1D1B"/>
<path d="M276.987 36.5C276.987 15.2083 265.88 0 252.148 0C238.315 0 227.309 15.2083 227.309 36.5C227.309 57.7917 238.315 73 252.148 73C265.88 73 276.987 57.7917 276.987 36.5ZM263.861 36.5C263.861 56.4736 260.832 70.7694 252.148 70.7694C243.364 70.7694 240.435 56.4736 240.435 36.5C240.435 16.5264 243.364 2.23056 252.148 2.23056C260.832 2.23056 263.861 16.5264 263.861 36.5Z" fill="#1D1D1B"/>
<path d="M276.285 1.01389L280.323 4.46111V68.5389L276.184 71.9861H295.974L291.632 68.5389V38.0208H294.056L298.196 47.3486V23.8264L293.854 33.3569H291.632V5.67778H298.196L302.84 15.8167V1.01389H276.285Z" fill="#1D1D1B"/>
<path d="M351.146 1.01389H333.778L340.039 6.28611L333.475 34.675L326.306 4.46111L330.648 1.01389H310.655L314.795 4.46111L324.287 45.5236V68.5389L320.147 71.9861H340.039L335.596 68.5389V45.5236L344.784 6.28611L351.146 1.01389Z" fill="#1D1D1B"/>
<path d="M351.483 4.46111V68.5389L347.444 71.9861H374V57.1833L369.456 67.3222H362.792V38.0208H365.215L369.355 47.3486V23.8264L365.114 33.3569H362.792V5.67778H369.456L374 15.8167V1.01389H347.444L351.483 4.46111Z" fill="#1D1D1B"/>
</svg>
