<svg width="795" height="189" viewBox="0 0 795 189" fill="none" xmlns="http://www.w3.org/2000/svg">
<path d="M129.919 94.4823C129.919 39.3676 101.049 0 65.3558 0C29.4001 0 0.792969 39.3676 0.792969 94.4823C0.792969 149.597 29.4001 188.965 65.3558 188.965C101.049 188.965 129.919 149.597 129.919 94.4823ZM95.8001 94.4823C95.8001 146.185 87.9266 183.191 65.3558 183.191C42.5226 183.191 34.9116 146.185 34.9116 94.4823C34.9116 42.7795 42.5226 5.77392 65.3558 5.77392C87.9266 5.77392 95.8001 42.7795 95.8001 94.4823Z" fill="#1D1D1B"/>
<path d="M149.613 51.4404L191.342 187.39L225.986 56.4269V177.417L215.225 186.34H266.403L255.38 177.417V11.0229L266.928 2.6245H227.561L199.216 105.768L165.885 2.6245H127.042L137.54 11.0229V177.417L127.567 186.34H159.586L149.613 177.417V51.4404Z" fill="#1D1D1B"/>
<path d="M340.006 113.116C358.116 127.026 369.138 134.375 369.138 150.647C369.138 165.869 359.69 174.53 348.142 174.53C327.934 174.53 307.2 148.022 294.602 120.465V187.127L305.625 177.417C317.961 184.503 331.083 187.127 342.631 187.127C366.776 187.127 389.61 169.806 389.61 137.262C389.61 104.455 372.288 90.808 353.391 75.5858C335.282 61.151 315.336 49.3407 315.336 33.5937C315.336 19.9463 323.997 11.5478 336.07 11.5478C350.504 11.5478 359.69 18.3716 382.261 61.6759V1.83716L371.501 8.39842C363.889 5.51147 353.391 1.83716 342.368 1.83716C313.761 1.83716 294.602 21.521 294.602 51.1779C294.602 81.6222 325.047 102.093 340.006 113.116Z" fill="#1D1D1B"/>
<path d="M517.044 16.272L499.722 146.447L481.613 11.5478L492.373 2.6245H440.933L451.956 11.5478L454.843 33.5937L439.883 146.447L421.512 11.5478L432.535 2.6245H381.094L391.855 11.5478L415.475 186.34H446.707L460.879 78.4728L475.314 186.34H506.808L529.117 16.272L545.388 2.6245H501.297L517.044 16.272Z" fill="#1D1D1B"/>
<path d="M563.219 52.2277L576.079 134.637H551.146L563.219 52.2277ZM555.608 2.6245L558.232 11.5478L532.774 177.417L522.801 186.34H554.558L544.585 177.417L549.309 146.71H577.916L582.64 177.417L571.617 186.34H623.057L612.297 177.417L585.002 2.6245H555.608Z" fill="#1D1D1B"/>
<path d="M634.019 51.4404L675.749 187.39L710.392 56.4269V177.417L699.632 186.34H750.809L739.786 177.417V11.0229L751.334 2.6245H711.967L683.622 105.768L650.291 2.6245H611.448L621.946 11.0229V177.417L611.973 186.34H643.992L634.019 177.417V51.4404Z" fill="#1D1D1B"/>
<path d="M783.882 177.417V11.5478L794.643 2.6245H743.727L754.488 11.5478V177.417L743.727 186.34H794.643L783.882 177.417Z" fill="#1D1D1B"/>
</svg>
