<svg width="441" height="75" viewBox="0 0 441 75" fill="none" xmlns="http://www.w3.org/2000/svg">
<path d="M0.844971 16.2173V1.25298H34.6685V16.2173L30.0562 5.96778H23.4965V69.515L27.3913 72.9999H8.22465L12.017 69.515V5.96778H5.45727L0.844971 16.2173Z" fill="#1D1D1B"/>
<path d="M49.8595 69.515L54.0618 72.7949L57.9566 69.515V38.6639H49.8595V69.515ZM57.9566 4.73784L53.9593 1.35548L49.8595 4.73784V33.9491H57.9566V4.73784ZM69.4361 4.73784V69.515L73.741 72.9999H34.2802L38.38 69.515V4.73784L34.2802 1.25298H73.536L69.4361 4.73784Z" fill="#1D1D1B"/>
<path d="M78.4974 4.73784L74.3976 1.25298H101.354V16.2173L96.7416 5.96778H89.9769V33.9491H92.3343L96.6391 24.3145V48.0935L92.4368 38.6639H89.9769V68.2851H96.7416L101.354 58.0355V72.9999H74.3976L78.4974 69.515V4.73784Z" fill="#1D1D1B"/>
<path d="M130.916 54.1407C135.733 58.2405 142.088 60.9054 148.443 56.7031V73.3074C148.443 73.3074 138.501 75.5623 129.378 57.6256V69.515L133.171 72.9999H114.107L117.899 69.515V4.53284L113.594 1.25298H129.378C139.935 1.25298 149.058 13.04 149.058 27.7993C149.058 41.6362 140.755 53.0133 130.916 54.1407ZM129.378 4.32785V51.1683C133.888 51.1683 137.476 40.7138 137.476 27.7993C137.476 14.7824 133.888 4.32785 129.378 4.32785Z" fill="#1D1D1B"/>
<path d="M200.45 37.1264C200.45 58.6505 189.176 74.0248 175.236 74.0248C161.195 74.0248 150.022 58.6505 150.022 37.1264C150.022 15.6024 161.195 0.228027 175.236 0.228027C189.176 0.228027 200.45 15.6024 200.45 37.1264ZM187.126 37.1264C187.126 16.9348 184.051 2.48293 175.236 2.48293C166.319 2.48293 163.347 16.9348 163.347 37.1264C163.347 57.3181 166.319 71.7699 175.236 71.7699C184.051 71.7699 187.126 57.3181 187.126 37.1264Z" fill="#1D1D1B"/>
<path d="M228.846 2.58543C219.928 2.58543 215.111 16.5248 215.111 38.0489C215.111 57.3181 218.699 70.745 227.616 70.745C232.843 70.745 237.045 65.6202 237.045 56.4981V51.4758C237.045 44.8136 235.918 41.9437 231.613 39.4838V39.2788H251.395V39.4838C248.217 41.7387 247.807 44.6086 247.807 51.3733V74.0248H247.602L239.71 63.4678C237.865 69.8225 232.228 74.0248 225.053 74.0248C211.934 74.0248 202.299 58.958 202.299 38.1514C202.299 15.2949 214.496 0.228027 227.923 0.228027C233.15 0.228027 236.533 3.2004 239.71 3.2004C241.965 3.2004 243.707 1.86796 244.732 0.228027L245.655 25.032H245.347C242.17 13.1425 236.123 2.58543 228.846 2.58543Z" fill="#1D1D1B"/>
<path d="M254.233 4.73784L250.133 1.25298H277.09V16.2173L272.478 5.96778H265.713V33.9491H268.07L272.375 24.3145V48.0935L268.173 38.6639H265.713V68.2851H272.478L277.09 58.0355V72.9999H250.133L254.233 69.515V4.73784Z" fill="#1D1D1B"/>
<path d="M294.56 54.1407C299.378 58.2405 305.733 60.9054 312.087 56.7031V73.3074C312.087 73.3074 302.145 75.5623 293.023 57.6256V69.515L296.815 72.9999H277.751L281.544 69.515V4.53284L277.239 1.25298H293.023C303.58 1.25298 312.702 13.04 312.702 27.7993C312.702 41.6362 304.4 53.0133 294.56 54.1407ZM293.023 4.32785V51.1683C297.533 51.1683 301.12 40.7138 301.12 27.7993C301.12 14.7824 297.533 4.32785 293.023 4.32785Z" fill="#1D1D1B"/>
<path d="M340.723 69.515L344.925 72.7949L348.82 69.515V38.6639H340.723V69.515ZM348.82 4.73784L344.823 1.35548L340.723 4.73784V33.9491H348.82V4.73784ZM360.299 4.73784V69.515L364.604 72.9999H325.143L329.243 69.515V4.73784L325.143 1.25298H364.399L360.299 4.73784Z" fill="#1D1D1B"/>
<path d="M388.22 1.25298H404.414L398.674 6.58276V58.8555C398.674 66.9527 392.217 73.3074 383.71 73.3074C375.408 73.3074 368.746 66.9527 368.746 58.958V4.73784L364.851 1.25298H384.12L380.225 4.73784V58.6505C380.225 62.4428 383.3 65.5177 387.092 65.5177C390.782 65.5177 393.96 63.1603 393.96 58.548V6.58276L388.22 1.25298Z" fill="#1D1D1B"/>
<path d="M424.288 32.1042C433.717 34.4616 440.995 42.5587 440.995 52.2958C440.995 63.5703 431.873 72.9999 418.856 72.9999H403.276L407.479 69.515V4.73784L403.276 1.25298H418.958C428.08 1.25298 436.587 8.22268 436.587 16.9348C436.587 23.9045 430.745 29.8493 424.288 32.1042ZM418.958 34.0516V69.925C423.98 69.925 429.105 62.3404 429.105 52.1933C429.105 42.0462 423.98 34.1541 418.958 34.0516ZM418.958 4.32785V30.9767C422.75 30.9767 425.825 24.9295 425.825 17.1398C425.825 9.45263 422.75 4.32785 418.958 4.32785Z" fill="#1D1D1B"/>
</svg>
