<svg width="491" height="75" viewBox="0 0 491 75" fill="none" xmlns="http://www.w3.org/2000/svg">
<path d="M23.829 1.25347H40.0233L34.2835 6.58325V58.856C34.2835 66.9531 27.8263 73.3079 19.3191 73.3079C11.017 73.3079 4.35479 66.9531 4.35479 58.9585V4.73833L0.459961 1.25347H19.7291L15.8343 4.73833V58.651C15.8343 62.4433 18.9092 65.5182 22.7015 65.5182C26.3913 65.5182 29.5687 63.1608 29.5687 58.5485V6.58325L23.829 1.25347Z" fill="#1D1D1B"/>
<path d="M71.8177 6.58325L65.873 1.25347H82.4772L76.5325 6.58325V73.3079L47.9362 18.8827V67.6706L53.881 73.0004H37.2767L43.2214 67.6706V12.323L36.2517 1.25347H51.2161L71.8177 39.4843V6.58325Z" fill="#1D1D1B"/>
<path d="M84.9043 4.73833L80.8045 1.25347H107.761V16.2178L103.149 5.96827H96.3838V33.9496H98.7412L103.046 24.315V48.094L98.8437 38.6644H96.3838V68.2856H103.149L107.761 58.036V73.0004H80.8045L84.9043 69.5155V4.73833Z" fill="#1D1D1B"/>
<path d="M145.628 69.5155L149.728 73.0004H129.946L133.944 69.5155L125.846 47.7865L117.749 67.6706L123.489 73.0004H106.372L112.83 67.6706L123.489 41.3292L109.857 4.73833L105.655 1.25347H125.744L121.542 4.73833L129.741 26.7749L137.838 6.58325L131.894 1.25347H149.215L142.758 6.58325L131.996 33.0271L145.628 69.5155Z" fill="#1D1D1B"/>
<path d="M184.516 27.7998C184.516 42.4567 174.983 54.2437 164.426 54.2437V69.5155L169.449 73.0004H148.847L152.947 69.5155V4.73833L148.027 1.25347H164.836C175.496 1.25347 184.516 13.143 184.516 27.7998ZM164.426 51.1688C169.346 51.1688 172.934 40.7143 172.934 27.7998C172.934 14.7829 169.346 4.32834 164.426 4.32834V51.1688Z" fill="#1D1D1B"/>
<path d="M187.94 4.73833L183.841 1.25347H210.797V16.2178L206.185 5.96827H199.42V33.9496H201.777L206.082 24.315V48.094L201.88 38.6644H199.42V68.2856H206.185L210.797 58.036V73.0004H183.841L187.94 69.5155V4.73833Z" fill="#1D1D1B"/>
<path d="M251.842 0.228516L252.662 25.0324H252.354C249.382 13.143 243.847 2.58591 237.185 2.58591C227.755 2.58591 223.553 16.8328 223.553 35.897C223.553 55.8836 229.703 67.5681 238.722 67.5681C244.667 67.5681 249.894 63.8783 252.969 52.0913L253.687 52.2963C251.944 65.5182 244.667 74.0253 234.417 74.0253C220.478 74.0253 210.536 59.5735 210.536 37.5369C210.536 15.9103 221.913 0.228516 236.16 0.228516C241.08 0.228516 243.744 3.20089 246.922 3.20089C249.074 3.20089 250.817 1.86845 251.842 0.228516Z" fill="#1D1D1B"/>
<path d="M254.49 16.2178V1.25347H288.314V16.2178L283.702 5.96827H277.142V69.5155L281.037 73.0004H261.87L265.662 69.5155V5.96827H259.103L254.49 16.2178Z" fill="#1D1D1B"/>
<path d="M289.723 4.73833L285.623 1.25347H312.58V16.2178L307.968 5.96827H301.203V33.9496H303.56L307.865 24.315V48.094L303.663 38.6644H301.203V68.2856H307.968L312.58 58.036V73.0004H285.623L289.723 69.5155V4.73833Z" fill="#1D1D1B"/>
<path d="M329.109 4.32834V69.9255C334.644 68.1831 339.051 53.6287 339.051 37.2294C339.051 20.6251 334.644 6.07076 329.109 4.32834ZM313.53 1.25347H329.109C342.843 1.25347 350.53 18.3702 350.53 37.6394C350.53 56.9086 342.843 73.0004 329.109 73.0004H313.53L317.629 69.5155V4.73833L313.53 1.25347Z" fill="#1D1D1B"/>
<path d="M361.61 16.2178V1.25347H395.434V16.2178L390.822 5.96827H384.262V69.5155L388.157 73.0004H368.99L372.782 69.5155V5.96827H366.223L361.61 16.2178Z" fill="#1D1D1B"/>
<path d="M411.128 69.5155L415.33 73.0004H395.446L399.648 69.5155V4.73833L395.446 1.25347H415.33L411.128 4.73833V69.5155Z" fill="#1D1D1B"/>
<path d="M421.325 20.3177V69.5155L425.22 73.0004H412.716L416.61 69.5155V4.53333L412.511 1.25347H427.68L440.697 41.5342L451.766 1.25347H467.141L462.631 4.53333V69.5155L466.936 73.0004H446.949L451.151 69.5155V22.2651L437.622 73.4104L421.325 20.3177Z" fill="#1D1D1B"/>
<path d="M467.669 4.73833L463.569 1.25347H490.526V16.2178L485.913 5.96827H479.149V33.9496H481.506L485.811 24.315V48.094L481.609 38.6644H479.149V68.2856H485.913L490.526 58.036V73.0004H463.569L467.669 69.5155V4.73833Z" fill="#1D1D1B"/>
</svg>
