<svg width="455" height="75" viewBox="0 0 455 75" fill="none" xmlns="http://www.w3.org/2000/svg">
<path d="M53.9128 6.58325L47.763 1.25347H64.9823L58.6276 6.58325L49.9155 73.0004H37.616L31.9787 30.8747L26.444 73.0004H14.247L5.02239 4.73833L0.820068 1.25347H20.9092L16.6044 4.73833L23.7791 57.4211L29.6213 13.348L28.4939 4.73833L24.1891 1.25347H44.2782L40.0759 4.73833L47.1481 57.4211L53.9128 6.58325Z" fill="#1D1D1B"/>
<path d="M109.425 37.1269C109.425 58.651 98.15 74.0253 84.2106 74.0253C70.1687 74.0253 58.9967 58.651 58.9967 37.1269C58.9967 15.6029 70.1687 0.228516 84.2106 0.228516C98.15 0.228516 109.425 15.6029 109.425 37.1269ZM96.1001 37.1269C96.1001 16.9353 93.0253 2.48342 84.2106 2.48342C75.2935 2.48342 72.3212 16.9353 72.3212 37.1269C72.3212 57.3186 75.2935 71.7704 84.2106 71.7704C93.0253 71.7704 96.1001 57.3186 96.1001 37.1269Z" fill="#1D1D1B"/>
<path d="M157.601 6.58325L151.452 1.25347H168.671L162.316 6.58325L153.604 73.0004H141.305L135.667 30.8747L130.133 73.0004H117.936L108.711 4.73833L104.509 1.25347H124.598L120.293 4.73833L127.468 57.4211L133.31 13.348L132.183 4.73833L127.878 1.25347H147.967L143.765 4.73833L150.837 57.4211L157.601 6.58325Z" fill="#1D1D1B"/>
<path d="M220.182 0.228516L221.002 25.0324H220.695C217.722 13.143 212.188 2.58591 205.525 2.58591C196.096 2.58591 191.893 16.8328 191.893 35.897C191.893 55.8836 198.043 67.5681 207.063 67.5681C213.008 67.5681 218.235 63.8783 221.31 52.0913L222.027 52.2963C220.285 65.5182 213.008 74.0253 202.758 74.0253C188.819 74.0253 178.877 59.5735 178.877 37.5369C178.877 15.9103 190.254 0.228516 204.5 0.228516C209.42 0.228516 212.085 3.20089 215.262 3.20089C217.415 3.20089 219.157 1.86845 220.182 0.228516Z" fill="#1D1D1B"/>
<path d="M271.824 37.1269C271.824 58.651 260.549 74.0253 246.61 74.0253C232.568 74.0253 221.396 58.651 221.396 37.1269C221.396 15.6029 232.568 0.228516 246.61 0.228516C260.549 0.228516 271.824 15.6029 271.824 37.1269ZM258.5 37.1269C258.5 16.9353 255.425 2.48342 246.61 2.48342C237.693 2.48342 234.721 16.9353 234.721 37.1269C234.721 57.3186 237.693 71.7704 246.61 71.7704C255.425 71.7704 258.5 57.3186 258.5 37.1269Z" fill="#1D1D1B"/>
<path d="M306.267 6.58325L300.322 1.25347H316.926L310.981 6.58325V73.3079L282.385 18.8827V67.6706L288.33 73.0004H271.725L277.67 67.6706V12.323L270.701 1.25347H285.665L306.267 39.4843V6.58325Z" fill="#1D1D1B"/>
<path d="M357.15 0.228516L357.97 25.0324H357.662C354.69 13.143 349.155 2.58591 342.493 2.58591C333.063 2.58591 328.861 16.8328 328.861 35.897C328.861 55.8836 335.011 67.5681 344.031 67.5681C349.975 67.5681 355.203 63.8783 358.277 52.0913L358.995 52.2963C357.252 65.5182 349.975 74.0253 339.726 74.0253C325.786 74.0253 315.844 59.5735 315.844 37.5369C315.844 15.9103 327.221 0.228516 341.468 0.228516C346.388 0.228516 349.053 3.20089 352.23 3.20089C354.383 3.20089 356.125 1.86845 357.15 0.228516Z" fill="#1D1D1B"/>
<path d="M362.874 4.73833L358.774 1.25347H385.73V16.2178L381.118 5.96827H374.353V33.9496H376.711L381.015 24.315V48.094L376.813 38.6644H374.353V68.2856H381.118L385.73 58.036V73.0004H358.774L362.874 69.5155V4.73833Z" fill="#1D1D1B"/>
<path d="M422.368 27.7998C422.368 42.4567 412.835 54.2437 402.278 54.2437V69.5155L407.301 73.0004H386.699L390.799 69.5155V4.73833L385.879 1.25347H402.688C413.348 1.25347 422.368 13.143 422.368 27.7998ZM402.278 51.1688C407.198 51.1688 410.786 40.7143 410.786 27.7998C410.786 14.7829 407.198 4.32834 402.278 4.32834V51.1688Z" fill="#1D1D1B"/>
<path d="M420.668 16.2178V1.25347H454.491V16.2178L449.879 5.96827H443.319V69.5155L447.214 73.0004H428.047L431.84 69.5155V5.96827H425.28L420.668 16.2178Z" fill="#1D1D1B"/>
</svg>
